<svg width="312" height="68" viewBox="0 0 312 68" fill="none" xmlns="http://www.w3.org/2000/svg">
<path d="M69.1913 1.93945H81.6663V66.086H0V1.93945H12.475V55.2661H34.5956V1.93945H47.0706V55.2661H69.1913V1.93945ZM92.2568 66.086V1.93945H117.207L130.325 62.6081H133.797L146.915 1.93945H171.994V66.086H159.519V12.6305L161.577 5.28847H158.233L144.472 66.086H119.65L106.018 5.28847H102.545L104.732 12.6305V66.086H92.2568Z" fill="#434343"/>
<path d="M312 1.90234V12.7222H287.821V66.0488H275.346V12.7222H251.168V1.90234H312Z" fill="#434343"/>
<path fill-rule="evenodd" clip-rule="evenodd" d="M209.665 30.3139L195.738 9.27734L174.271 24.1073L177.536 31.9497L182.484 30.3139L186.482 22.3544L189.868 23.0114L190.065 23.0443L184.421 31.1037C184.421 69.5458 221.085 73.0599 235.703 60.6119L229.422 51.1331C208.473 65.1742 194.546 45.3847 196.81 31.1037L196.427 24.1103L196.767 24.1673L199.957 24.6384L198.844 33.3313L202.707 36.4436L209.665 30.3139Z" fill="#434343"/>
<path fill-rule="evenodd" clip-rule="evenodd" d="M223.941 37.7232L237.867 58.7598L259.334 43.9298L256.07 36.0874L251.121 37.7232L247.124 45.6827L243.737 45.0257L243.54 44.9928L249.184 36.9334C249.184 -1.50872 212.52 -5.02279 197.902 7.42523L204.184 16.9041C225.132 2.86295 239.06 22.6524 236.795 36.9334L237.178 43.9268L236.839 43.8698L233.648 43.3987L234.762 34.7058L230.898 31.5935L223.941 37.7232Z" fill="#434343"/>
</svg>
