<svg width="48" height="41" viewBox="0 0 48 41" fill="none" xmlns="http://www.w3.org/2000/svg">
<path d="M23.958 39.0605C23.9058 39.0977 23.8556 39.1336 23.8072 39.168C23.7587 39.1336 23.7084 39.0977 23.6563 39.0604C23.015 38.6021 22.0963 37.9338 20.9928 37.0981C18.7835 35.4249 15.8443 33.0888 12.911 30.4294C9.97039 27.7632 7.07523 24.8075 4.92661 21.897C2.74102 18.9365 1.49998 16.2502 1.49998 14.0835C1.49998 11.255 2.59523 8.06846 4.6116 5.60589C6.6075 3.16834 9.44853 1.5 12.9757 1.5C16.1187 1.5 18.4471 4.04505 20.0984 7.23186C20.893 8.76537 21.4566 10.3129 21.8222 11.4856C22.0042 12.0693 22.1351 12.5538 22.2198 12.8889C22.2621 13.0562 22.2927 13.1859 22.3123 13.2716C22.3222 13.3144 22.3292 13.3462 22.3336 13.3661L22.3381 13.3871L22.3386 13.3897L22.3388 13.3904C22.3388 13.3903 22.3388 13.3903 22.3415 13.3897L25.2725 13.39C25.2753 13.3906 25.2753 13.3906 25.2753 13.3907L25.2754 13.39L25.276 13.3874L25.2805 13.3665C25.2849 13.3465 25.2919 13.3147 25.3018 13.2719C25.3214 13.1862 25.3521 13.0566 25.3944 12.8892C25.4792 12.5541 25.6102 12.0696 25.7923 11.4859C26.1581 10.3131 26.722 8.76555 27.5168 7.23199C29.1687 4.04487 31.497 1.5 34.6384 1.5C38.1666 1.5 41.0076 3.16838 43.0031 5.60603C45.0192 8.06872 46.1142 11.2558 46.1142 14.0857C46.1142 16.2528 44.8731 18.9391 42.6875 21.8995C40.5389 24.8098 37.6438 27.7652 34.7032 30.4309C31.7699 33.09 28.8307 35.4257 26.6214 37.0986C25.5179 37.9341 24.5992 38.6023 23.958 39.0605Z" fill="#B7D5FA" stroke="#B7D5FA" stroke-width="3"/>
</svg>
