<svg width="33" height="42" viewBox="0 0 33 42" fill="none" xmlns="http://www.w3.org/2000/svg">
<path d="M25.4673 40.2223C25.7192 40.151 25.9419 40.0701 26.1573 39.9659C27.5873 39.2725 28.3326 37.6791 28.2397 34.6737L25.4673 40.2223ZM25.4673 40.2223C25.3727 40.249 25.2782 40.273 25.1619 40.3015L25.4673 40.2223ZM17.4423 15.4678C17.4097 15.4713 17.3846 15.4739 17.3617 15.4762C17.3352 15.4789 17.3116 15.4813 17.2831 15.4845L16.7529 15.5441L16.7278 15.0111C16.7147 14.7316 16.7324 14.3522 16.7887 13.8653L16.7887 13.8651C16.9042 12.8709 17.1713 11.5362 17.6185 9.81725L17.4423 15.4678ZM17.4423 15.4678C17.8741 15.4239 18.3623 15.3798 18.8962 15.3386C21.0878 15.1699 23.3259 15.1008 25.413 15.1875L25.4131 15.1875C26.6938 15.2404 27.8613 15.3516 28.8961 15.5262L28.8962 15.5262C30.031 15.7176 30.7873 16.1301 31.2665 16.7158C31.7478 17.304 32.0054 18.135 32.0043 19.2739C32.0033 20.3139 31.5866 21.5348 31.0638 22.2195L30.8294 22.5264L31.0671 22.8308C31.5864 23.4955 31.7198 24.6737 31.4506 25.86C31.1804 27.0511 30.559 28.0144 29.8421 28.3377L29.4584 28.5107L29.5634 28.9183C29.8761 30.1313 29.9174 31.1273 29.6729 31.977C29.4313 32.8167 28.8943 33.5696 27.9429 34.2714L27.7319 34.4271L27.74 34.6892C27.831 37.6343 27.0948 38.9556 25.9391 39.516C25.7554 39.6049 25.5611 39.6761 25.3313 39.7411L25.3311 39.7412C25.2465 39.7651 25.1601 39.7871 25.0474 39.8147C24.9993 39.8257 24.8248 39.8672 24.7797 39.8781L24.7757 39.8791C24.7118 39.8951 24.6876 39.9014 24.6508 39.9112L24.6487 39.9118C22.6164 40.4632 19.0176 40.7417 14.9416 40.6269C10.8894 40.5126 6.41983 40.0112 2.6352 39.0323C1.33105 36.8135 0.605802 33.3941 0.510725 29.7419C0.415921 26.1001 0.949807 22.303 2.09728 19.3541L2.13116 19.3017C2.36054 19.0728 2.61523 18.8377 2.92878 18.5619C2.92891 18.5618 2.93022 18.5607 2.93352 18.5578L2.94741 18.5459L2.99524 18.5047L3.15735 18.3653C3.29054 18.2507 3.46832 18.0977 3.65677 17.9348C4.03102 17.6114 4.45527 17.2426 4.65176 17.0632C5.91347 15.912 6.81892 14.8206 7.54571 13.4197L17.4423 15.4678Z" stroke="black"/>
</svg>
