<svg width="33" height="41" viewBox="0 0 33 41" fill="none" xmlns="http://www.w3.org/2000/svg">
<path fill-rule="evenodd" clip-rule="evenodd" d="M10.837 0.203961C10.5726 0.317882 10.1553 0.604875 9.90983 0.841617L9.46343 1.27197L9.4626 3.53861C9.46123 7.39631 9.05425 9.20166 7.46986 12.3776C6.39547 14.5313 5.6521 15.4633 3.48849 17.3701C1.63035 19.0078 1.45948 19.275 0.896876 21.4246C-0.157597 25.4541 -0.291106 30.3961 0.543325 34.5174C0.852923 36.0463 1.46374 37.9155 1.9313 38.7649C2.24433 39.3337 2.29075 39.3608 3.44426 39.6497C5.04486 40.0507 7.52933 40.4632 10.0568 40.7475C13.034 41.0825 20.2892 41.0846 22.5178 40.7512C24.5148 40.4524 25.9731 40.0524 26.5905 39.6341C27.5794 38.9643 28.1192 37.7224 28.2429 35.8327L28.3209 34.6415L29.0386 33.9029C30.1848 32.7232 30.6103 31.0869 30.2138 29.384C30.0974 28.8844 30.1182 28.8388 30.7467 28.2121C31.6659 27.2958 32.0347 26.3007 32.048 24.7008C32.0558 23.7685 31.9975 23.3466 31.8085 22.968C31.5653 22.4808 31.5657 22.4536 31.8277 21.9411C32.7964 20.0451 32.7557 17.8707 31.7247 16.4519C31.1783 15.7001 29.943 15.1138 28.4184 14.8826C27.1135 14.6849 21.0085 14.6393 18.6806 14.8101L17.2527 14.9147L17.3295 13.9201C17.3716 13.3729 17.6279 11.956 17.8988 10.7714C18.4449 8.38353 18.4787 7.88116 18.1856 6.50192C17.6385 3.92761 15.7291 1.54842 13.2855 0.395929C12.3157 -0.0613976 11.5853 -0.118632 10.837 0.203961ZM13.2352 1.46941C14.1493 1.95919 15.575 3.30009 16.1963 4.25418C16.4744 4.68138 16.841 5.46198 17.0109 5.98887C17.408 7.22009 17.3492 8.86537 16.8316 11.0084C16.3753 12.8975 16.1254 14.8466 16.2529 15.5237L16.3505 16.0431L17.1778 15.9569C21.9712 15.4574 27.2855 15.5449 29.5836 16.161C29.9101 16.2486 30.3602 16.5367 30.7001 16.8757C31.1575 17.3321 31.3026 17.6028 31.4377 18.2523C31.694 19.4848 31.3691 20.9785 30.6295 21.9672L30.2412 22.4863L30.6631 23.0826C31.0338 23.607 31.0843 23.7904 31.082 24.6007C31.077 26.2375 30.2851 27.7556 29.3086 27.9998C28.9158 28.0981 28.9031 28.2273 29.1766 29.3562C29.4321 30.4109 29.4303 30.9859 29.1686 31.8641C28.9637 32.5522 28.3374 33.3514 27.6292 33.8287C27.354 34.0141 27.3139 34.1792 27.2571 35.358C27.0957 38.7047 26.371 39.2807 21.6039 39.851C19.8296 40.0633 13.5923 40.0626 11.3177 39.8498C9.01373 39.6341 6.05441 39.2076 4.34325 38.8444L2.99154 38.5575L2.67219 37.9277C0.697025 34.0308 0.454044 26.246 2.13623 20.7581L2.50544 19.5539L3.82102 18.4105C5.41352 17.0266 6.64463 15.755 7.25462 14.8637C7.96159 13.8311 9.40972 10.7215 9.78346 9.43374C10.2928 7.67879 10.4568 6.30722 10.4505 3.85641L10.4448 1.63359L10.8125 1.37699C11.0148 1.23582 11.2731 1.0837 11.3864 1.03892C11.7321 0.902001 12.5178 1.08507 13.2352 1.46941Z" fill="black"/>
</svg>
